<svg data-v-fde0c5aa="" 
  xmlns="http://www.w3.org/2000/svg" viewBox="0 0 300 300" class="icon">  <!---->
  <g data-v-fde0c5aa="" id="4ad4f07b-7e3a-4de0-b19f-4482d0f68182" fill="#6163FF" stroke="none" transform="matrix(2.444420614592601,0,0,2.444420614592601,27.77667422251928,27.777733744355885)">
    <path d="M50 88.72a4.862 4.862 0 0 1-3.446-1.428L12.118 52.855c-9.49-9.495-9.49-24.947 0-34.445 4.598-4.597 10.709-7.129 17.215-7.129s12.623 2.534 17.225 7.134L50 21.852l3.441-3.441c4.599-4.597 10.709-7.129 17.215-7.129 6.507 0 12.623 2.534 17.226 7.134 9.495 9.498 9.49 24.95 0 34.44L53.445 87.292A4.86 4.86 0 0 1 50 88.72zM29.333 21.029a14.497 14.497 0 0 0-10.323 4.274c-5.693 5.694-5.693 14.963 0 20.661L50 76.953l30.99-30.989c5.692-5.693 5.692-14.96 0-20.657-5.521-5.517-15.146-5.517-20.656-.004L53.45 32.19a4.876 4.876 0 0 1-6.892.002l-6.892-6.882a14.515 14.515 0 0 0-10.333-4.281z"></path>
    <path d="M50.004 59.99a4.871 4.871 0 0 1-3.446-1.428l-9.737-9.743a4.872 4.872 0 1 1 6.891-6.892l6.292 6.297 16.03-16.035a4.873 4.873 0 0 1 6.893 0 4.872 4.872 0 0 1 0 6.892L53.45 58.562a4.865 4.865 0 0 1-3.446 1.428z"></path>
  </g>  <!----></svg>